<svg xmlns="http://www.w3.org/2000/svg" viewBox="0 0 240.35 256.58">
<defs>
<style>.cls-1{fill:#CFC1CC;}</style>
</defs>
<g id="Layer_2" data-name="Layer 2"><g id="Layer_1-2" data-name="Layer 1"><circle class="cls-1" cx="171.33" cy="111.99" r="31.13"/><circle class="cls-1" cx="119.62" cy="70.11" r="31.13"/><circle class="cls-1" cx="95.92" cy="201.7" r="31.13"/><circle class="cls-1" cx="44.21" cy="159.83" r="31.13"/><circle class="cls-1" cx="108.2" cy="137.08" r="31.13"/><circle class="cls-1" cx="31.13" cy="225.45" r="31.13"/><circle class="cls-1" cx="159.9" cy="178.95" r="31.13"/><circle class="cls-1" cx="56.5" cy="95.2" r="31.13"/><path class="cls-1" d="M240.35,52.15C221,42.2,205,41.43,196.21,41.8,188.19,42.14,169,43,165.38,53c-2.18,6,1.83,14,6.67,18.1C184.78,81.77,212.81,75.64,240.35,52.15Z"/><path class="cls-1" d="M156.47,0c12,10.57,16.94,21.53,19.07,27.55,1.7,4.79,8.51,24,.32,30.78-3.74,3.11-10.24,3.38-14.37,1C150.66,53.14,147.46,29.35,156.47,0Z"/></g></g></svg>